HIERARCHY
ROOT Hips
{
	OFFSET 0.000000 0.000000 0.000000
	CHANNELS 6 Xposition Yposition Zposition Xrotation Yrotation Zrotation
	JOINT LeftUpLeg_virtual
	{
		OFFSET 0.000000 0.000000 0.000000
		CHANNELS 3 Xrotation Yrotation Zrotation
		JOINT LeftUpLeg
		{
			OFFSET 10.205400 -3.823500 0.155100
			CHANNELS 3 Xrotation Yrotation Zrotation
			JOINT LeftLeg
			{
				OFFSET 0.708757 -12.982077 0.567790
				CHANNELS 3 Xrotation Yrotation Zrotation
				JOINT LeftFoot
				{
					OFFSET -0.708756 -10.717838 -2.184338
					CHANNELS 3 Xrotation Yrotation Zrotation
					JOINT LeftToeBase
					{
						OFFSET 0.108149 -7.191104 7.560241
						CHANNELS 3 Xrotation Yrotation Zrotation
						JOINT LeftToe_End
						{
							OFFSET 0.070230 0.081724 4.490308
							CHANNELS 3 Xrotation Yrotation Zrotation
							End Site
							{
								OFFSET 0 0 0
							}
						}
					}
				}
			}
		}
	}
	JOINT RightUpLeg_virtual
	{
		OFFSET 0.000000 0.000000 0.000000
		CHANNELS 3 Xrotation Yrotation Zrotation
		JOINT RightUpLeg
		{
			OFFSET -10.205400 -3.823500 0.005500
			CHANNELS 3 Xrotation Yrotation Zrotation
			JOINT RightLeg
			{
				OFFSET -0.708756 -12.982134 0.610632
				CHANNELS 3 Xrotation Yrotation Zrotation
				JOINT RightFoot
				{
					OFFSET 0.708754 -10.717769 -1.945823
					CHANNELS 3 Xrotation Yrotation Zrotation
					JOINT RightToeBase
					{
						OFFSET -0.108140 -7.191069 7.372968
						CHANNELS 3 Xrotation Yrotation Zrotation
						JOINT RightToe_End
						{
							OFFSET -0.070227 0.081735 4.479403
							CHANNELS 3 Xrotation Yrotation Zrotation
							End Site
							{
								OFFSET 0 0 0
							}
						}
					}
				}
			}
		}
	}
	JOINT Spine_virtual
	{
		OFFSET 0.000000 0.000000 0.000000
		CHANNELS 3 Xrotation Yrotation Zrotation
		JOINT Spine
		{
			OFFSET 0.000000 6.876099 0.125700
			CHANNELS 3 Xrotation Yrotation Zrotation
			JOINT Spine1
			{
				OFFSET 0.000000 5.730043 0.104720
				CHANNELS 3 Xrotation Yrotation Zrotation
				JOINT Spine1_split
				{
					OFFSET 0.000000 5.730043 0.104720
					CHANNELS 3 Xrotation Yrotation Zrotation
					JOINT Spine2
					{
						OFFSET 0.000000 5.730043 0.104720
						CHANNELS 3 Xrotation Yrotation Zrotation
						JOINT Neck_virtual
						{
							OFFSET 0.000000 0.000000 0.000000
							CHANNELS 3 Xrotation Yrotation Zrotation
							JOINT Neck
							{
								OFFSET 0.000000 10.314075 0.188496
								CHANNELS 3 Xrotation Yrotation Zrotation
								JOINT Head
								{
									OFFSET 0.000000 7.643700 -2.377400
									CHANNELS 3 Xrotation Yrotation Zrotation
									JOINT HeadTop_End
									{
										OFFSET 0.000000 43.788605 -13.619600
										CHANNELS 3 Xrotation Yrotation Zrotation
										End Site
										{
											OFFSET 0 0 0
										}
									}
								}
							}
						}
						JOINT LeftShoulder_virtual
						{
							OFFSET 0.000000 0.000000 0.000000
							CHANNELS 3 Xrotation Yrotation Zrotation
							JOINT LeftShoulder
							{
								OFFSET 2.196100 4.412489 0.087492
								CHANNELS 3 Xrotation Yrotation Zrotation
								JOINT LeftShoulder_split
								{
									OFFSET 2.196100 4.412489 0.087492
									CHANNELS 3 Xrotation Yrotation Zrotation
									JOINT LeftArm
									{
										OFFSET 8.771219 -2.981674 -0.026999
										CHANNELS 3 Xrotation Yrotation Zrotation
										JOINT LeftForeArm
										{
											OFFSET 8.512804 0.000000 -0.000000
											CHANNELS 3 Xrotation Yrotation Zrotation
											JOINT LeftHand
											{
												OFFSET 18.484802 0.000000 -0.000000
												CHANNELS 3 Xrotation Yrotation Zrotation
												End Site
												{
													OFFSET 0 0 0
												}
											}
										}
									}
								}
							}
						}
						JOINT RightShoulder_virtual
						{
							OFFSET 0.000000 0.000000 0.000000
							CHANNELS 3 Xrotation Yrotation Zrotation
							JOINT RightShoulder
							{
								OFFSET -2.196100 4.412496 0.070690
								CHANNELS 3 Xrotation Yrotation Zrotation
								JOINT RightShoulder_split
								{
									OFFSET -2.196100 4.412496 0.070690
									CHANNELS 3 Xrotation Yrotation Zrotation
									JOINT RightArm
									{
										OFFSET -8.771282 -2.981682 -0.094208
										CHANNELS 3 Xrotation Yrotation Zrotation
										JOINT RightForeArm
										{
											OFFSET -8.494598 0.000000 0.000000
											CHANNELS 3 Xrotation Yrotation Zrotation
											JOINT RightHand
											{
												OFFSET -18.483803 0.000000 0.000001
												CHANNELS 3 Xrotation Yrotation Zrotation
												End Site
												{
													OFFSET 0 0 0
												}
											}
										}
									}
								}
							}
						}
					}
				}
			}
		}
	}
}
MOTION
Frames: 4
Frame Time: 0.03333333
-0.013611 14.119974 -2.273294 0.000000 0.000000 0.000000 67.680891 -1.737427 1.055928 0.613619 15.826102 14.086084 21.644748 10.115139 -0.585429 -52.473625 6.514492 -9.601453 -52.421159 6.763115 -14.525015 0.000000 0.000000 0.000000 69.712729 -5.698765 1.809340 9.293876 -0.665938 -8.076033 9.243904 7.950921 2.309214 -30.412442 6.271895 9.348774 -72.123307 -2.231233 9.401576 0.000000 0.000000 0.000000 72.724651 -0.731419 -0.788361 -1.824570 1.932059 -0.611564 2.248752 1.458618 0.138820 0.660454 -0.742398 0.932931 0.000000 0.000000 0.000000 2.179975 -0.267751 0.113335 -9.293059 0.692690 2.731787 10.033610 9.933267 -5.711001 0.000000 0.000000 0.000000 2.334678 -0.471208 1.042817 2.719699 1.353683 1.022572 -0.017226 0.782658 -3.234064 -43.450675 -56.966359 -49.176727 0.977055 -20.734366 0.078478 0.000000 0.000000 0.000000 1.578257 -0.222998 1.040959 0.211199 4.704529 15.180661 4.985655 9.370021 -1.902934 -56.361789 56.728635 52.569121 -0.903999 20.491988 0.401411 0.000000 0.000000 0.000000 
-0.113459 14.163275 -2.246763 0.000000 0.000000 0.000000 67.595227 -1.803823 1.219096 1.100009 16.256815 13.990256 21.300210 10.461177 -0.670713 -52.490642 6.120025 -8.226709 -52.543846 6.882184 -14.664705 0.000000 0.000000 0.000000 69.663647 -6.016269 2.155660 9.073350 -0.708505 -8.038617 9.418790 7.922753 2.389286 -30.435203 6.145842 9.687006 -71.866998 -2.188717 9.342287 0.000000 0.000000 0.000000 72.993282 -0.789139 -0.526895 -1.636107 1.951859 -0.702335 2.350353 1.446630 0.129005 0.791510 -1.185181 0.969690 0.000000 0.000000 0.000000 2.167440 -0.272707 0.170214 -9.675469 0.526329 2.696592 10.002032 9.841937 -6.084369 0.000000 0.000000 0.000000 2.423362 -0.453124 1.045313 2.693965 1.472673 1.063132 0.563432 0.973834 -2.783303 -43.850026 -56.979043 -49.539485 1.089047 -20.055607 -0.044718 0.000000 0.000000 0.000000 1.730958 -0.169616 1.096952 0.154134 4.979473 15.041873 5.016991 9.091869 -2.121943 -56.093810 55.988700 51.821250 -0.873985 20.890134 0.593512 0.000000 0.000000 0.000000 
-0.200687 14.262590 -2.238564 0.000000 0.000000 0.000000 67.602849 -2.039101 1.440880 1.465729 16.482964 13.976926 20.558361 10.501708 -0.586125 -51.770713 5.646281 -7.450351 -52.769973 7.012905 -14.849248 0.000000 0.000000 0.000000 69.746340 -6.453224 2.565767 8.793690 -0.897365 -7.931705 9.466749 7.807953 2.518832 -30.305406 5.973120 10.086341 -71.813763 -2.130089 9.270693 0.000000 0.000000 0.000000 73.195292 -0.913303 -0.249000 -1.341931 1.936644 -0.808891 2.469889 1.399904 0.130973 0.856663 -1.595569 0.946755 0.000000 0.000000 0.000000 2.149646 -0.330996 0.269105 -9.815930 0.477927 2.638948 9.794394 9.623344 -6.222880 0.000000 0.000000 0.000000 2.566823 -0.501680 1.045321 2.708176 1.519148 1.458099 1.181679 1.196775 -2.326591 -43.930240 -57.356302 -49.874929 1.170011 -19.877638 -0.196519 0.000000 0.000000 0.000000 1.941876 -0.163297 1.168280 -0.018018 5.643926 14.835769 5.158198 8.848782 -2.241746 -53.940702 54.523915 49.212322 -0.844514 22.961552 0.772443 0.000000 0.000000 0.000000 
-0.262011 14.402725 -2.274006 0.000000 0.000000 0.000000 67.611134 -2.413689 1.703337 1.704599 16.514417 13.990472 19.567129 10.060697 -0.402167 -50.486170 5.159839 -7.469085 -53.653858 6.965760 -14.584803 0.000000 0.000000 0.000000 69.850173 -6.931603 2.980718 8.558214 -1.184785 -7.709275 9.430580 7.552912 2.610920 -30.180605 5.746058 10.431149 -71.894824 -2.074464 9.206958 0.000000 0.000000 0.000000 73.321596 -1.192775 0.114234 -1.003155 1.881253 -0.926933 2.579924 1.311438 0.132587 0.778677 -1.826537 0.927763 0.000000 0.000000 0.000000 2.155068 -0.440922 0.394640 -9.701065 0.553423 2.556201 9.365146 9.280602 -6.126308 0.000000 0.000000 0.000000 2.737893 -0.599074 1.051380 2.750779 1.588202 2.222795 1.779996 1.318276 -1.951923 -43.920422 -57.916289 -50.231820 1.255033 -20.404618 -0.352367 0.000000 0.000000 0.000000 2.186863 -0.199723 1.247453 -0.309061 6.757348 14.574903 5.257663 8.720305 -2.304782 -50.505663 52.521972 45.452317 -0.804168 26.237538 0.929279 0.000000 0.000000 0.000000 
